<?xml version="1.0" encoding="utf-8"?>
<!-- Generator: Adobe Illustrator 19.0.1, SVG Export Plug-In . SVG Version: 6.00 Build 0)  -->
<svg version="1.1" id="Layer_1" xmlns="http://www.w3.org/2000/svg" xmlns:xlink="http://www.w3.org/1999/xlink" x="0px" y="0px"
	 viewBox="0 0 792 612" style="enable-background:new 0 0 792 612;" xml:space="preserve">
<g>
	<path d="M431,136.4c-0.9-0.1-1.3-0.2-1.7-0.2c-58.5,0-117,0-175.5,0c-0.7,0-1.5,0-2.2,0c-4-0.4-6.8-3.2-7.1-7.2c0-0.6,0-1.3,0-1.9
		c0-26.7,0-53.4,0-80c0-0.6,0-1.3,0-1.9c0.3-4.4,3.5-7.5,7.9-7.7c0.5,0,0.9,0,1.4,0c106.1,0,212.1,0,318.2,0c2,0,3.8,0.2,5.5,1.4
		c2.1,1.4,3.4,3.3,3.5,5.9c0.1,0.8,0,1.7,0,2.5c0,22.6,0,45.3,0,67.9c0,0.6,0,1.3,0,1.9c0,2-0.8,3.8-2.1,5.2c-1.3,1.4-2.7,2.8-4,4.2
		c-28.1,28.9-56.1,57.8-84.2,86.7c-9.7,10-19.5,20.1-29.2,30.1c-0.4,0.4-0.8,0.9-1.3,1.6c0.7,0.2,1.1,0.3,1.5,0.4
		c18.7,3.4,36.9,8.3,54.5,15.6c14.4,6,28,13.5,40.3,23.1c16.3,12.6,29.5,27.9,39,46.3c5.7,10.9,9.8,22.4,12.6,34.4
		c3.8,16.3,5,32.9,4.3,49.6c-0.4,8.6-1.5,17.2-2.9,25.8c-0.5,2.7-1.8,4.7-3.7,6.6c-23.8,23.7-47.5,47.5-71.2,71.2
		c-19.1,19.1-38.1,38.1-57.2,57.2c-0.5,0.5-1,1-1.6,1.6c-1.3,1.3-2.8,2.1-4.5,2.5c-5.9,1.2-11.7,2.4-17.6,3.4
		c-8,1.4-16,2.1-24.1,2.7c-1.2,0.1-2.4,0.2-3.6,0.2c-10.8,0.2-21.5,0.5-32.3-0.5c-6.3-0.6-12.6-1.1-19-1.8c-8.4-0.9-16.8-2.4-25-4.1
		c-10.3-2.2-20.4-4.9-30.3-8.2c-29.5-9.9-56.4-24.6-80.6-44.1c-14.4-11.6-27.4-24.6-39.1-38.8c-1.1-1.3-1.9-2.7-2.6-4.2
		c-0.5-1.2-0.5-2.3,0-3.5c0.8-1.8,1.9-3.3,3.4-4.7c6.6-6,13.1-12.1,19.6-18.2c15-13.9,29.9-27.8,44.9-41.7c0.7-0.6,1.3-1.3,2.1-1.8
		c3.1-2.4,7.2-2.2,10.1,0.5c0.7,0.6,1.2,1.4,1.8,2.1c7.9,9.2,16.3,18,25.5,25.9c13.5,11.7,28.2,21.5,44.6,28.6
		c9.2,4,18.8,7,28.6,9.1c14.3,3.1,28.7,4.2,43.3,3.7c2.9-0.1,5.9-0.5,8.8-0.7c1-0.1,1.8-0.5,2.4-1.1c0.5-0.5,0.9-0.9,1.4-1.4
		c22.1-22.1,44.2-44.2,66.4-66.3c0.5-0.5,0.9-0.9,1.4-1.4c0.6-0.6,0.9-1.4,0.9-2.2c0.4-13.5-2.2-26.3-9.4-38
		c-4.9-7.8-11.2-14.3-18.7-19.6c-7.8-5.6-16.4-9.8-25.5-12.9c-9.2-3.2-18.7-5.4-28.3-7c-12.7-2-25.4-2.6-38.2-2.7
		c-13.4,0-26.9,0-40.3,0c-0.8,0-1.7,0-2.5,0c-3.4-0.3-5.7-2-6.8-5.2c-0.6-1.8-1-3.7-1.5-5.6c-4.6-17.8-9.2-35.6-13.9-53.4
		c-0.1-0.5-0.3-1.1-0.4-1.6c-0.5-2.6,0-4.9,1.8-6.9c1.9-2.1,3.9-4.2,5.8-6.3c21.3-22.9,42.6-45.8,63.9-68.7
		c13.9-14.9,27.8-29.9,41.7-44.8C430.2,137.4,430.4,137.1,431,136.4z"/>
</g>
</svg>
