<?xml version="1.0" encoding="utf-8"?>
<!-- Generator: Adobe Illustrator 19.0.1, SVG Export Plug-In . SVG Version: 6.00 Build 0)  -->
<svg version="1.1" id="CHANCE-front-ActualSize-4_x5F_5inW_xA0_Image_1_"
	 xmlns="http://www.w3.org/2000/svg" xmlns:xlink="http://www.w3.org/1999/xlink" x="0px" y="0px" viewBox="0 0 473.3 237.8"
	 style="enable-background:new 0 0 473.3 237.8;" xml:space="preserve">
<g>
	<path d="M285.2,158.9c-3.8,0-7.4,0-11.1,0c-0.3,0-0.8-0.5-0.9-0.9c-2.7-7.2-5.3-14.4-7.9-21.6c-3.4-9.4-6.9-18.8-10.3-28.2
		c-0.1-0.3-0.2-0.6-0.5-0.8c0,17.1,0,34.3,0,51.5c-4.2,0-8.3,0-12.5,0c0-28.7,0-57.4,0-86.3c1,0,2,0,2.9,0c2.6,0,5.3,0,7.9,0
		c0.9,0,1.2,0.3,1.5,1.1c6,16.6,12,33.1,17.9,49.7c0.1,0.3,0.3,0.7,0.6,1c0-17.2,0-34.3,0-51.6c4.2,0,8.3,0,12.5,0
		C285.2,101.3,285.2,130,285.2,158.9z"/>
	<path d="M156,72.5c4.3,0,8.4,0,12.5,0c0,28.8,0,57.5,0,86.2c-4.1,0-8.2,0-12.5,0c0-12.7,0-25.4,0-38.2c-5.1,0-10.1,0-15.3,0
		c0,12.7,0,25.4,0,38.2c-4.2,0-8.3,0-12.5,0c0-28.7,0-57.4,0-86.2c4.1,0,8.2,0,12.4,0c0,12.3,0,24.5,0,36.8c5.1,0,10.1,0,15.3,0
		C156,97.1,156,84.9,156,72.5z"/>
	<path d="M193.2,158.8c-4.2,0-8.3,0-12.5,0c6.5-28.8,12.9-57.6,19.4-86.3c3.3,0,6.6,0,9.8,0c0.3,0,0.7,0.5,0.8,0.9
		c1.4,5.9,2.7,11.8,4,17.8c5,22.3,10,44.6,15,66.9c0.1,0.3,0.1,0.5,0.1,0.9c-4.2,0-8.3,0-12.5,0c-1.2-6.1-2.4-12.2-3.7-18.4
		c-5.6,0-11.2,0-16.9,0C195.7,146.6,194.4,152.7,193.2,158.8z M205.4,97.6c-0.1,0-0.2,0-0.3,0c-2,10.3-4,20.6-6.1,31
		c4.2,0,8.2,0,12.4,0C209.4,118.2,207.4,107.9,205.4,97.6z"/>
	<path d="M358.2,72.5c12.4,0,24.6,0,37,0c0,3.9,0,7.7,0,11.7c-8.1,0-16.3,0-24.5,0c0,8.5,0,16.8,0,25.2c7.1,0,14.2,0,21.3,0
		c0,3.9,0,7.7,0,11.7c-7.1,0-14.2,0-21.3,0c0,8.5,0,16.8,0,25.2c8.2,0,16.3,0,24.5,0c0,4.2,0,8.3,0,12.4c-12.3,0-24.6,0-37,0
		C358.2,130.1,358.2,101.4,358.2,72.5z"/>
	<path d="M99.6,134.2c4.3,0,8.4,0,12.4,0c1.2,10.8-2.4,19.6-12.6,24.1c-6.4,2.8-18.2,1.4-23.5-5.6c-2.9-3.8-4.1-8.1-4.1-12.8
		c0-16.2,0-32.4,0-48.6c0-11.1,8.6-19.5,19.7-19.6c7.1,0,12.9,2.5,17.1,8.4c2.5,3.6,3.6,7.6,3.6,12c0,1.7,0,3.3,0,5.1
		c-4.2,0-8.3,0-12.6,0c0-1.4,0-2.9,0-4.4c0-2.7-0.9-5-2.9-6.9c-3.6-3.5-10.1-1.9-11.6,2.9c-0.5,1.6-0.8,3.4-0.8,5.1
		c-0.1,14.8,0,29.6,0,44.4c0,1.1,0.1,2.2,0.4,3.2c1,3.9,3.1,6,8.2,5.4c4.1-0.5,6.5-3.3,6.7-7.5C99.7,137.7,99.6,136,99.6,134.2z"/>
	<path d="M342.1,97.3c-4.3,0-8.3,0-12.6,0c0-1.4,0.1-2.8,0-4.1c-0.1-1.3-0.2-2.7-0.7-3.9c-1.9-4.9-6.1-6-10.6-4.5
		c-1.3,0.5-2.1,1.4-2.7,2.6c-0.9,2-1.3,4.1-1.3,6.3c0,14.9,0,29.8,0,44.7c0,1,0.1,2,0.3,3c0.9,3.9,3.2,6.1,8.3,5.5
		c4.1-0.5,6.4-3.3,6.6-7.4c0.1-1.7,0-3.5,0-5.3c4.2,0,8.3,0,12.5,0c0.5,6.4,0,12.5-4.2,17.7c-4,4.9-9.1,7.7-15.5,7.7
		c-4.9,0-9.5-0.9-13.4-4c-4.2-3.2-6.4-7.6-6.9-12.8c-0.2-1.6-0.2-3.3-0.2-4.9c0-15.5,0-31,0-46.4c0-11.2,8.5-19.6,19.8-19.8
		c11.1-0.2,20.5,7.9,20.6,20.5C342.1,93.9,342.1,95.6,342.1,97.3z"/>
</g>
</svg>
