<?xml version="1.0" encoding="utf-8"?>
<!-- Generator: Adobe Illustrator 19.0.1, SVG Export Plug-In . SVG Version: 6.00 Build 0)  -->
<svg version="1.1" id="Layer_1" xmlns="http://www.w3.org/2000/svg" xmlns:xlink="http://www.w3.org/1999/xlink" x="0px" y="0px"
	 viewBox="0 0 792 612" style="enable-background:new 0 0 792 612;" xml:space="preserve">
<style type="text/css">
	.st0{fill:#FFFFFF;}
</style>
<g id="_x39_v6dst_1_">
	<g>
		<path d="M568.1,244.8c0.4-20,3.1-39.4,8.2-58.8c3.3-12.5,2.9-25.9,4.2-38.9c0.4-4.3,0.4-8.8,1.6-12.9c2.3-8,9.4-12.9,16.9-12.4
			c6.7,0.4,11,4.7,13,13.5c3.8,16.4,7.2,32.9,11.2,49.2c1,4.1,4,7.7,6.1,11.5c2.4-3.8,5.9-7.4,6.9-11.6c1.5-6.3,1.2-13,2-19.5
			c1.2-10.6,2.5-21.3,4.1-31.8c0.4-2.8,1.5-6.3,3.5-7.9c2.8-2.2,6.8-3.9,10.4-4.1c4.4-0.2,7.1,3.4,7.7,7.7c0.6,3.7,0.9,7.5,0.8,11.2
			c-1.5,34.3-3.2,68.6-4.6,102.9c-0.3,8.1,0.5,16.3,0.2,24.4c-0.3,11.3-4.2,17-11.9,18.9c-9.2,2.2-18.1-1.6-22.9-10.8
			c-4.5-8.8-8-18.1-12.1-27.1c-2.2-4.9-4.6-9.7-7.2-14.4c-1.9-3.4-4.8-3.5-6,0.2c-1.2,4-1.9,8.5-1.4,12.6c1,7.7,3.3,15.1,0.3,22.8
			c-3.2,8.2-9.9,13.3-17.9,13.4c-8.7,0.1-13-4.1-13.2-13.2C568,261.5,568.1,253.1,568.1,244.8z"/>
		<path d="M184.4,464.9c-1.2-11-2.5-22-3.5-33c-1.1-11.4-2-22.9-2.7-34.3c-0.3-4.3,0-8.7,0.2-13c0.6-10.6,1.4-21.3,2.1-31.9
			c0.2-2.6,0.1-5.2,0.4-7.7c0.8-6.8,4-10.2,10.5-12.1c25.2-7.2,53.6,3.7,68.2,23.7c5.1,7,7.3,15.1,5.6,23.7
			c-1.4,7.2,0.2,13.3,4.8,18.8c2.4,2.9,4.2,6.3,6.9,8.9c7.3,7,8.3,15.4,7.4,25.1c-1.5,16.5-10.3,28-22.5,38.3
			c-13.5,11.3-29.5,16.5-46.1,20.2c-5.6,1.2-11.9,0.4-17.7-0.6c-9.3-1.6-13.4-6.7-14.2-16.4c-0.3-3.1,0-6.3,0-9.5
			C184,464.9,184.2,464.9,184.4,464.9z M210.9,443.5c0.9,5.7,1.8,14,3.6,22.1c1.7,8,8.2,9.5,14.2,3.7c2.7-2.6,5.4-5.3,8.4-7.5
			c11-8.2,15.9-19.6,16.3-32.8c0.4-11.1-7.7-15.7-17.6-10.7c-5.5,2.8-10.8,5.9-16.3,8.5C213.3,429.7,210.5,434.3,210.9,443.5z
			 M236.5,377.7c0.5-0.2,1-0.4,1.5-0.6c-2.2-5.1-3.6-10.7-6.7-15.1c-3.6-5.1-8.8-9-13.3-13.5c-4-4-8.2-3.4-10,2.1
			c-1.4,4.2-2.1,8.9-2.1,13.4c0.1,10.6,0.5,21.3,1.3,31.9c0.2,3,1.9,7.5,3.9,8.2c3,1,7.4-0.1,10.2-1.8c3.4-2.1,5.7-6,8.8-8.7
			C235.1,389.2,237,384,236.5,377.7z"/>
		<path d="M217.9,210.1c-1.7,13.1-2.7,26.4-5.5,39.2c-1.4,6.4-5.2,13.1-9.8,17.9c-7.2,7.5-15.4,14.5-24.3,19.7
			c-15.4,9-38.2-0.1-47.7-17.2c-6.7-12.1-9.2-24.8-9.7-38.6c-0.9-26.9,3.8-52.9,9.6-78.9c4.5-20.1,23.6-31.3,44.7-26
			c5.5,1.4,10.9,3.5,16.2,5.8c6.5,2.8,10.4,7.8,12.7,14.7c6.9,20.6,13.4,41.1,11.5,63.3C216.5,210,217.2,210,217.9,210.1z
			 M187.4,226.6c0-5.4,0.7-10.8-0.1-16c-2.5-15.8-5.6-31.6-8.5-47.4c-1.1-5.9-5.1-9.9-9.7-9.4c-5.5,0.6-6.6,5.1-7.2,9.5
			c-2.3,16.7-5.5,33.4-6.3,50.1c-0.7,14.1,1.2,28.5,2.4,42.6c0.4,4.4,2.9,8.3,7.8,9.5c5.2,1.3,8.3-1.7,11.6-5.3
			C186.2,250.6,188.3,239.1,187.4,226.6z"/>
		<path d="M547.2,366.5c0,5.2-0.5,10.4,0.2,15.4c0.4,2.9,2.7,5.6,4.2,8.3c2.6-1.8,6.5-3,7.7-5.5c5.9-12.3,11.1-24.9,16.5-37.5
			c0.7-1.6,1.2-3.4,1.8-5c4.4-11.4,20-15,29.1-6.7c4.5,4.2,4.4,9.4,1.8,14.2c-6.1,11.3-12.6,22.3-19.1,33.4
			c-10.5,18.1-12.2,28.3-1,44.5c6.3,9.1,10.9,19.2,16.7,28.7c2.4,4,6.3,7.1,8.9,11c2.4,3.7,5.1,7.8,5.6,11.9c0.9,7.9-5,13-13,12.4
			c-9.7-0.8-16.7-6-21.4-14.1c-6-10.3-11.7-20.7-17.6-31c-2.8-4.9-5.8-10.1-12.6-8.9c-4.4,0.8-7,7-5.9,14.7c1.1,7.8,2.7,15.6,4,23.4
			c0.3,1.5,0.1,3.2,0,4.8c-0.6,8.4-4.7,13.6-11.4,14.7c-7.9,1.2-15.2-2.8-17.5-10.9c-2.2-7.8-3.9-15.8-4.4-23.9
			c-0.8-11.6-0.4-23.3-0.6-35c-0.4-23.4-1-46.8-1.4-70.2c-0.1-3.9-0.1-8,0.8-11.7c1.8-6.8,7-10.2,14.3-10.1
			c7.2,0.1,12.2,3.1,13.6,10.1c1.5,7.5,1.6,15.3,2.3,22.9C548.3,366.4,547.8,366.5,547.2,366.5z"/>
		<path d="M405.1,396.6c0-10.7-0.4-21.4,0.1-32.1c0.8-14.6,13.4-28.3,27.7-30.7c11.3-1.9,22.5-3.9,34.1,0c13.1,4.4,21,12.5,26,25.4
			c10.8,28,10.5,56.3,3.8,84.8c-2.3,9.9-6.8,19.5-11.8,28.4c-9.2,16.4-30.2,25.1-48.1,21.3c-15.5-3.3-28.6-18.9-29.5-34.7
			c-1.1-20.8-2.3-41.6-3.5-62.3C404.4,396.6,404.7,396.6,405.1,396.6z M474.6,399.8c-0.7-3.3-1.2-5.8-1.8-8.3c-1.9-8-3-16.4-6.1-24
			c-2.7-6.8-7.4-12.8-11.8-18.7c-0.8-1.1-5.2-1.2-6.6-0.1c-6,4.7-11,10.4-11.4,18.6c-1,20.8-2.3,41.6-2.7,62.4
			c-0.2,11.5,0.3,23.1,5.6,33.8c2.4,4.9,5.5,8.9,11.7,8.5c6.2-0.4,8.8-4.8,10.5-10c1.7-5.3,3.1-10.7,4.2-16.1
			C469.1,430.3,471.8,414.7,474.6,399.8z"/>
		<path d="M680.3,186.6c0-12.9-1-25.9,0.2-38.6c1.9-18.6,18.6-31.5,37.1-30.1c9.7,0.7,19.4,1.5,29,2.6c5.8,0.6,10.3,3.8,13.6,8.7
			c2.7,4.2,5.9,8,8.2,12.4c3.4,6.3,3.7,13.1-0.4,19.2c-3.5,5.2-9.1,6-14.9,5c-7.3-1.3-11.2-5.8-13.2-12.8
			c-1.5-5.1-3.3-10.2-5.9-14.8c-3.2-5.7-6.5-5.8-11.7-2.1c-10.2,7.2-15.4,16-13.9,29.2c2.7,24.4,4.3,49,6.4,73.5
			c0.9,11.3,8.2,17.2,17.9,20.7c5.2,1.9,9.7-0.3,11.1-5.8c0.9-3.3,0.7-7,0.5-10.6c-0.6-12.7-2.2-25.3-1.9-38
			c0.2-11.9,8.2-17,19.9-14.8c6.6,1.3,9.5,5.6,10.2,11.5c2.3,18.3,4.6,36.6,6.5,54.9c1.3,13.2-6.4,21.7-19.6,22.3
			c-10.3,0.5-20.6,0.4-30.9,1.1c-19.4,1.4-34.4-13.4-40.3-28.7C678.8,227.8,679.2,227,680.3,186.6z"/>
		<path d="M405.2,188.1c1.7,21.1-0.5,40.1-6.4,58.2c-4.5,13.8-11.5,27-24.7,35.4c-12.7,8.1-33.8,7.5-44.7-8.9
			c-10.2-15.4-15.3-32.1-14.2-50c1.2-19.6,3.6-39.1,7.1-58.4c1.7-9.3,6.2-18.5,10.8-26.9c5.5-10.1,16.3-11.9,26.4-11.7
			c8.4,0.1,16.9,2.2,24.9,4.9c3.9,1.4,7.8,5.6,9.8,9.5C402.2,155.6,407.5,172,405.2,188.1z M377.8,200.8c0-0.8,0-1.6,0-2.4
			c0.2-14.4-1.2-28.5-6.1-42.2c-1.6-4.3-3.4-8.9-9.3-8.4c-5.7,0.4-8.1,4.4-9.4,9.3c-0.4,1.7-0.5,3.5-0.6,5.3
			c-0.8,15.5-1.8,30.9-2.3,46.4c-0.4,12.7-0.3,25.4,0.1,38c0.2,5.3,0.8,11.5,7.5,12.7c6.8,1.2,8.2-5.1,10.4-9.5
			C376,234.5,377.3,217.7,377.8,200.8z"/>
		<path d="M389.2,437.7c0.3,24.4-14.7,46-36.1,52.7c-21.1,6.6-50.2-7.7-52.7-34.9c-1.3-14.4-3.4-28.7-5.5-43
			c-3.6-24.7,0.3-47.9,13.8-69c2.5-4,6.6-7.5,10.8-9.7c17.1-8.8,37.9-2.8,50.1,11.7c9.4,11.1,12.1,23.8,13.6,37.2
			C385.3,401,387.2,419.3,389.2,437.7z M356.3,421.3C356.3,421.3,356.3,421.3,356.3,421.3c0-11.7,0.6-23.4-0.2-35
			c-0.6-8.6-2.6-17.2-4.6-25.6c-1.1-4.5-3.8-8.7-9.1-9c-5.3-0.3-9.3,2.6-11.2,7.3c-1.9,4.7-4,9.7-4.3,14.7
			c-0.9,16.6-1.5,33.3-1.4,49.9c0,11.7,1.2,23.5,7.2,33.9c1.7,3,3.9,6.3,6.7,8c7.3,4.3,15.9-0.6,16.7-10.4
			C357.1,444,356.3,432.6,356.3,421.3z"/>
		<path d="M15,194.6c1.1-15.2,1.3-26.8,3.1-38.1c0.9-5.7,4.7-11,7.4-16.4c0.5-1,1.8-1.6,2.5-2.6c14.5-20.3,37.6-18.2,54.8-8.5
			c6.9,3.9,13.5,8.5,19.4,13.6c3.1,2.6,6.1,7,6.4,10.9c0.7,8.2,0.1,16.5-0.7,24.8c-0.3,2.6-2.4,6.2-4.6,7.2
			c-3.7,1.7-8.7,3.1-12.1,1.8c-3-1.1-6.3-6.1-6.3-9.4c-0.1-10.4-4.4-18.3-11.6-25.1c-4-3.8-8.6-5.7-14.1-4.2
			c-5.6,1.6-6.8,6.4-7.4,11.2c-2.5,18.1-4.2,36.2-2,54.5c1.2,10,0.2,20.3,1.5,30.3c0.7,5.6,3.5,11.1,6.5,16c1.2,2,6.2,3.9,8,3
			c2.9-1.5,4.9-5.1,6.7-8.2c0.9-1.5,0.3-3.9,0.5-5.9c0.7-8.4,4.3-13,11-14.1c7.1-1.1,15.9,3.7,18.1,10.6c3.4,10.6,3.1,21.2-2.6,31.1
			c-1.3,2.3-3.4,4.5-5.6,6.1c-18.3,13.2-50.2,9.8-63-8.4c-6.4-9.1-10.5-20.7-12.3-31.7C15.8,225.9,15.9,208.3,15,194.6z"/>
		<path d="M423.3,150.9c0-3.2-0.5-8,0.1-12.7c1.3-9.1,8.2-14.3,16.7-11c9.1,3.5,17.5,8.9,26,13.8c2.7,1.5,4.7,4.5,7.6,5.7
			c11.9,5.1,15.9,15.9,20.3,26.6c3,7.5,1.4,14.5-3,20.8c-7.1,10.2-7.8,20.7-2.7,32c5.4,12.1,10.2,24.5,15.2,36.7
			c3,7.2,1.1,13.6-5.2,17.6c-7.4,4.8-16.7,4.7-21.3-0.7c-2.3-2.6-4-5.9-5.3-9.2c-4-10.6-7.7-21.2-11.5-31.9
			c-0.5-1.3-0.7-2.9-1.6-3.8c-1.7-1.7-3.8-4.2-5.7-4.1c-1.9,0.1-4.8,2.5-5.4,4.5c-1.5,4.9-2.1,10-2.7,15.1
			c-0.7,5.1-0.6,10.3-1.6,15.3c-2,9.9-12.5,15.1-21.8,11.1c-5.4-2.3-6.4-7.4-6.5-12.4c0-5.1,0.9-10.3,1.3-15.4
			c0.3-2.8,0.8-5.6,0.6-8.3c-1.5-25.3,3-50.2,5.7-75.2C423.1,161.2,423.1,156.9,423.3,150.9z M447.9,181.7c0.1,0,0.1,0,0.2,0
			c0,3.2-0.5,6.4,0.1,9.4c0.7,3.1,2,8.1,4,8.6c2.9,0.7,7.5-1,9.7-3.3c8.6-8.9,5.6-27-5.1-33.4c-4.1-2.4-7-1.5-7.8,3.3
			C448.2,171.4,448.3,176.5,447.9,181.7z"/>
		<path d="M272.8,144.6c-2.2,33.4-4.3,66.9-6.5,100.3c-0.7,10.5,4.4,15,15.1,14.5c6.2-0.3,12.6,0.3,18.7,1.7
			c5.1,1.1,7.7,5.5,7.5,10.9c-0.2,5.2-3.4,8.8-8.2,9.7c-13.6,2.7-27.2,5.8-40.9,7.1c-12.6,1.3-24.7-10.4-24.4-23.2
			c0.7-33.1,2.1-66.1,3.2-99.2c0.2-5.5,0.2-11.1,0.2-16.6c-0.1-9.3,4.3-16.3,11.4-21.8c5.4-4.1,11.4-5.6,17.8-2.4
			c6.2,3.1,6.6,8.9,6.5,14.8c0,1.4-0.1,2.8-0.2,4.2C272.9,144.6,272.8,144.6,272.8,144.6z"/>
		<path d="M556.2,141.1c-1.8,33.9-3.6,67.7-5.3,101.6c-0.5,8.7-0.2,17.5-1.3,26.1c-1.1,8.9-6.3,12.8-14.5,12.4
			c-7.5-0.4-11.7-4.7-12.2-13.4c-1-20.2-1.8-40.4-2.5-60.6c-0.6-20.4-0.3-40.8,5.1-60.8c1.1-4,2.6-7.9,4.3-11.7
			c3.7-8.1,10.2-11.9,17.4-10.2C553.7,126,556.7,131.4,556.2,141.1z"/>
		<path class="st0" d="M210.9,443.5c-0.4-9.3,2.4-13.9,8.6-16.7c5.6-2.6,10.9-5.7,16.3-8.5c9.9-5,18-0.4,17.6,10.7
			c-0.5,13.2-5.4,24.6-16.3,32.8c-3,2.2-5.7,4.9-8.4,7.5c-6,5.7-12.5,4.3-14.2-3.7C212.7,457.5,211.8,449.2,210.9,443.5z"/>
		<path class="st0" d="M236.5,377.7c0.5,6.3-1.4,11.6-6.4,15.8c-3.1,2.7-5.4,6.6-8.8,8.7c-2.9,1.7-7.3,2.8-10.2,1.8
			c-2-0.7-3.6-5.2-3.9-8.2c-0.8-10.6-1.3-21.3-1.3-31.9c0-4.5,0.7-9.1,2.1-13.4c1.8-5.4,6-6,10-2.1c4.5,4.4,9.6,8.4,13.3,13.5
			c3.1,4.4,4.5,10,6.7,15.1C237.5,377.2,237,377.4,236.5,377.7z"/>
		<path class="st0" d="M187.4,226.6c0.8,12.5-1.2,24-10,33.7c-3.3,3.6-6.4,6.6-11.6,5.3c-4.9-1.2-7.5-5.1-7.8-9.5
			c-1.2-14.2-3.1-28.5-2.4-42.6c0.8-16.8,4-33.4,6.3-50.1c0.6-4.4,1.7-8.9,7.2-9.5c4.6-0.5,8.6,3.5,9.7,9.4
			c2.9,15.8,6,31.5,8.5,47.4C188.1,215.8,187.4,221.3,187.4,226.6z"/>
		<path class="st0" d="M474.6,399.8c-2.8,14.9-5.5,30.5-8.6,46.1c-1.1,5.4-2.6,10.8-4.2,16.1c-1.6,5.1-4.3,9.6-10.5,10
			c-6.1,0.4-9.3-3.6-11.7-8.5c-5.2-10.7-5.8-22.3-5.6-33.8c0.4-20.8,1.7-41.6,2.7-62.4c0.4-8.2,5.4-13.9,11.4-18.6
			c1.4-1.1,5.8-1.1,6.6,0.1c4.4,5.9,9.1,12,11.8,18.7c3.1,7.6,4.2,16,6.1,24C473.4,393.9,473.9,396.4,474.6,399.8z"/>
		<path class="st0" d="M377.8,200.8c-0.5,16.9-1.8,33.7-9.5,49.3c-2.2,4.4-3.6,10.7-10.4,9.5c-6.7-1.2-7.3-7.4-7.5-12.7
			c-0.4-12.7-0.5-25.4-0.1-38c0.4-15.5,1.5-30.9,2.3-46.4c0.1-1.8,0.1-3.6,0.6-5.3c1.3-4.9,3.7-8.9,9.4-9.3c5.9-0.4,7.7,4.1,9.3,8.4
			c5,13.6,6.3,27.8,6.1,42.2C377.8,199.2,377.8,200,377.8,200.8z"/>
		<path class="st0" d="M356.3,421.3c0,11.3,0.7,22.6-0.2,33.8c-0.9,9.8-9.4,14.7-16.7,10.4c-2.8-1.7-5-5-6.7-8
			c-6-10.5-7.2-22.2-7.2-33.9c0-16.6,0.5-33.3,1.4-49.9c0.3-5,2.3-10,4.3-14.7c1.9-4.7,6-7.6,11.2-7.3c5.3,0.3,8.1,4.4,9.1,9
			c2,8.4,4.1,17,4.6,25.6C356.9,398,356.3,409.7,356.3,421.3C356.3,421.3,356.3,421.3,356.3,421.3z"/>
		<path class="st0" d="M447.9,181.7c0.3-5.1,0.3-10.3,1.1-15.3c0.8-4.7,3.8-5.7,7.8-3.3c10.6,6.4,13.7,24.5,5.1,33.4
			c-2.2,2.3-6.8,3.9-9.7,3.3c-1.9-0.5-3.3-5.4-4-8.6c-0.7-3-0.1-6.3-0.1-9.4C448.1,181.7,448,181.7,447.9,181.7z"/>
	</g>
</g>
</svg>
