<?xml version="1.0" encoding="utf-8"?>
<!-- Generator: Adobe Illustrator 19.0.1, SVG Export Plug-In . SVG Version: 6.00 Build 0)  -->
<svg version="1.1" id="Layer_1" xmlns="http://www.w3.org/2000/svg" xmlns:xlink="http://www.w3.org/1999/xlink" x="0px" y="0px"
	 viewBox="0 0 792 612" style="enable-background:new 0 0 792 612;" xml:space="preserve">
<g>
	<path d="M480.3,320.6c6.2-43.6,5.1-87.4,12.4-130.9c2.3-0.3,4.7-0.9,7-0.8c6.7,0.2,10.9,5.5,9.4,11.8c-1,4.2-2.5,8.4-3.1,12.7
		c-0.3,2,1.3,4.2,1.4,6.4c0.1,3.9-0.3,7.8-0.4,11.7c0,3.2,0.6,6.5,0.4,9.7c-1.2,15.9-2.6,31.7-3.7,47.6c-0.5,6.9-0.3,13.8-1,20.6
		c-0.8,7.5-2.5,14.9-3.3,22.5c-1,10.7-1.5,21.5-2.3,32.2c-0.2,2.7,4.2,5,0.5,8c-3.9,3.2-8.3,3.6-13.1,3.1c-7-0.7-10.7-3.7-12.5-11
		c-2.8-11.4-7.6-22.3-10.9-33.6c-2.9-10.1-4.9-20.4-7.5-30.6c-2.4-9.5-4.9-18.9-7.8-30.1c-0.7,2.6-1.1,3.5-1.2,4.4
		c-1,19.8-1.9,39.7-2.8,59.5c-0.2,5.2-0.1,10.4-0.8,15.6c-0.7,5.9-2,11.8-3.2,17.6c-0.2,1-1.7,2.5-2.5,2.4
		c-5.3-0.6-10.5-1.4-15.7-2.6c-0.8-0.2-1.7-2.5-1.6-3.7c1-14.2,2.4-28.3,3.2-42.5c0.9-15.7,1.2-31.5,2.2-47.2
		c1-16.8,2.3-33.6,3.9-50.3c1-10.2,2.9-20.2,4.1-30.3c0.4-3.2,0.1-6.5,0.1-11.2c6.4,3,11.9,5.4,17.3,8.2c1,0.5,1.8,2.5,1.9,3.9
		c2.3,26.6,7.5,52.6,14.8,78.2c4.2,14.8,8.4,29.5,12.7,44.3C478.8,317.7,479.6,319.2,480.3,320.6z"/>
	<path d="M230,210c1.8,10.1,3.7,20.2,5.5,30.3c0.6,3.1,1.2,6.3,1.6,9.4c1.7,16.1,3,32.4,5.2,48.4c1.6,11.6,5,22.9,6.9,34.5
		c1.9,11.4,2.8,23,4.2,34.5c0.1,0.5,0.5,1.1,0.5,1.6c-0.2,3.2,4.3,7.1-0.6,9.3c-4.6,2.1-9.8,3.4-14.8,4c-1,0.1-3.4-4-3.8-6.4
		c-2.7-14.6-5.1-29.2-7.3-43.9c-0.6-3.9-2-5.2-5.8-4.6c-8.9,1.5-17.8,2.9-26.7,4.1c-3.5,0.5-4.3,1.8-3.5,5.3
		c3.3,14.9,6.5,29.8,9.5,44.7c1.4,7,0.1,9.3-6.6,11.7c-0.7,0.3-1.4,0.4-2.2,0.5c-13.2,2.2-13.8,1.7-16.1-11.7
		c-4.4-26.1-9-52.1-13.3-78.2c-0.6-3.9-1.9-7.6,0.1-12.3c1.6-3.6-1-8.9-1.5-13.5c-0.2-2.5,0.4-5,0.1-7.5
		c-1.5-10.9-3.6-21.7-4.8-32.6c-0.8-6.8-0.9-13.7-0.4-20.5c0.3-4.5,4.7-5.9,8.5-5.7c1.5,0.1,3.6,3.3,4,5.3
		c5.8,28.7,11.4,57.4,17,86.1c0.6,3.3,2.2,4.4,5.5,3.8c8.1-1.4,16.3-2.6,24.5-3.7c5-0.7,6.3-2.8,5.5-8.1c-3.4-22-6.2-44-9.3-66
		c-0.9-6.7-2.1-13.3-2.7-20c-0.2-1.7,0.9-4.6,2.2-5.2c5.4-2.6,11.4-4.6,17-1.2c1.9,1.1,2.5,4.4,3.7,6.6
		C231.2,209.5,230.6,209.8,230,210z"/>
	<path d="M382,363.5c-4.5,4.6-15.7,6.6-20.9,3.2c-1.7-1.1-3.2-3.2-3.8-5.1c-1.8-6.3-3.6-12.7-4.5-19.1c-0.9-6-5.2-6.9-9.3-6.4
		c-7.5,0.8-14.9,3.5-22.6,0.4c-2.1-0.8-5.1,0.2-5.3,3.9c-0.6,8-1.4,16-2.3,24c-0.1,1.2-1.1,2.7-2.2,3.4c-1.1,0.7-2.8,0.9-4.3,0.9
		c-13,0-12.7,0-11.4-12.6c2.9-28.6,5-57.2,8.3-85.7c2.5-21.2,6.4-42.3,9.4-63.4c0.9-6.8,0.5-13.8,1.2-20.7c0.2-1.6,2.3-4.2,3.6-4.3
		c7.1-0.4,14,1,18,7.5c1.7,2.7,1.3,6.6,2.4,9.7c2.8,8.3,6.3,16.4,8.7,24.8c3.6,12.7,6.7,25.6,9.9,38.5c4.4,18.2,8.7,36.5,13,54.7
		c2.7,11.3,5.5,22.6,8.3,33.9C379.4,355.2,380.7,359.3,382,363.5z M330.3,247.3c-0.6,0-1.3,0-1.9,0c-2,5.6-5.2,11.1-5.9,16.9
		c-1.9,16-2.8,32.1-3.8,48.1c-0.1,1.2,2,3.5,3,3.5c7.7-0.3,15.4-1.1,23.2-1.7C339.8,291,335.1,269.1,330.3,247.3z"/>
	<path d="M773,266.8c-1.8,3.8-3.8,8.1-5.9,12.4c-0.6,1.1-2,2-2.2,3.1c-0.6,3.9-2.8,3.4-5.3,2.4c-13.8-5.4-27.7-10.6-41.3-16.2
		c-4.3-1.8-5.6-0.7-7.3,3.4c-6.5,15.7-13.6,31.2-21.1,48.2c4.1,1.3,8.1,2.7,12.2,3.9c8.8,2.7,17.5,5.5,26.3,8.1
		c3.5,1.1,3.8,3.1,2.4,6c-2.5,5.2-5,10.4-7.6,15.6c-12.4-3.8-24.4-7.5-36.3-11.3c-2.6-0.8-4.7-1.2-6,1.9
		c-5.8,14.7-11.6,29.3-17.4,44c-0.3,0.7-0.3,1.4-0.7,3c11.2,4.2,22.3,8.6,33.5,12.6c9.4,3.3,9.7,3.1,5,12c-1.8,3.4-4.6,6.3-7.3,9.1
		c-0.8,0.8-2.8,1-4,0.6c-15.4-5.2-30.6-10.6-46-15.7c-8.4-2.7-10.4-6.9-7-15.3c5.5-13.6,10.7-27.4,16.2-41
		c8.4-20.6,16.6-41.2,25.6-61.5c3.4-7.6,5.2-16.5,13.1-21.5c-1.8-5.9,5.2-6.4,6.5-10.7c1.3-4.2,3.8-8.1,6.2-11.8
		c4.4-6.7,8.2-7.3,14.9-3.3c5.2,3.1,10.4,6.4,15.9,8.6C747.4,258,759.5,262,773,266.8z"/>
	<path d="M96.2,405.6c1.8-19-3.6-37.1-8.9-56.1c5-0.9,9.5-2.2,14.1-2.2c1.7,0,4.5,2.5,4.9,4.3c2.6,10.3,4.8,20.7,7,31.1
		c0.6,2.9,0.5,6,1.3,8.9c5.6,18.2-10.2,32.3-24.8,31.7c-5.8-0.2-12.1-5.6-17-9.9c-10.1-9-16.7-21-23-32.8
		c-6.2-11.5-12-23.2-17.2-35.2c-4.5-10.4-9-21-11.6-31.9c-4.4-18.6-4.5-37.4,3.1-55.6c2.7-6.5,8.6-9.3,14.3-10.3
		c8.8-1.5,18.3-3.9,26.9,0.7c5.8,3.1,12.3,6.6,15.9,11.8c5.8,8.3,9.6,18,14,27.3c1.6,3.4,0.2,6.2-3.2,7.7c-4.1,1.8-8.2,3.8-12.5,4.7
		c-1.4,0.3-4.2-2.1-5.2-3.9c-3.4-6-5.7-12.7-9.5-18.4c-3.3-4.9-7.9-8.9-12.3-12.9c-3.3-2.9-6-1.6-8,2.2c-3.8,7.2-4.6,14.7-3.8,22.8
		c2.8,28.3,14.2,53.6,26.7,78.4c5.4,10.7,12.2,20.8,18.7,31c1.9,3,5.3,5.1,7.9,7.6C94.8,406.2,95.5,405.9,96.2,405.6z"/>
	<path d="M573.7,375.5c12.2-14.8,18-32.8,24.4-51.4c4.6,2.2,9,3.7,12.8,6.3c1.4,1,2.3,4.5,1.7,6.3c-3.7,10-7.8,19.8-11.9,29.6
		c-1.1,2.8-3,5.2-3.9,8.1c-5.7,18.5-27.3,20.6-38.3,12.1c-4.7-3.6-6.7-11.5-8.4-17.8c-3.2-12.2-1.5-24.8-0.9-37.3
		c0.9-18.4,5.4-36.1,8.8-54.1c2.8-14.6,8.3-28.1,15.7-40.2c6.1-9.9,16.1-17.7,25.5-24.9c3.2-2.5,10.5-1.9,14.9-0.2
		c15.2,6,27.8,15,29.6,33.2c1.1,11-1,21.6-4,32.1c-1.1,3.8-3.6,5.1-7.1,4.5c-4.4-0.8-8.9-1.6-12.9-3.3c-1.3-0.5-2.2-3.8-2-5.7
		c0.6-6.9,2.5-13.7,2.5-20.6c0-6.2-1.8-12.5-3.3-18.6c-0.8-3.4-4-4.1-6.8-2.5c-6.5,3.5-11.7,8.4-15.4,15
		c-13.7,24-19.2,50.4-22.8,77.3c-1.8,13.8-2.1,27.8-2.7,41.7c-0.1,3.3,1.6,6.7,2.4,10.1C572.3,375.2,573,375.4,573.7,375.5z"/>
</g>
</svg>
