<?xml version="1.0" encoding="utf-8"?>
<!-- Generator: Adobe Illustrator 19.0.1, SVG Export Plug-In . SVG Version: 6.00 Build 0)  -->
<svg version="1.1" id="Layer_1" xmlns="http://www.w3.org/2000/svg" xmlns:xlink="http://www.w3.org/1999/xlink" x="0px" y="0px"
	 viewBox="0 0 792 612" style="enable-background:new 0 0 792 612;" xml:space="preserve">
<g>
	<path d="M567.7,284.6c-3.2-15.9-2.5-46.1,0.9-50c-4-6.3-3.8-19.2,0.3-22c-4.8-4.4-1.9-9.6-1.2-14.4c1-6.6,2.8-13,3.9-19.6
		c0.6-3.5,0.4-7.2,1.7-10.8c0,2.9,0,5.8,0,9.5c1-0.9,1.6-1.2,1.6-1.5c0.4-6.9,0.5-13.7,1-20.6c0.5-6.1,1.6-12.2,2.1-18.3
		c0.9-9.1,1.7-18.1,2.1-27.2c0.1-3.2-1.1-6.5-1.7-9.7c-0.6-3.2,0.2-5,3.9-6.2c3.6-1.1,5.6-5,10.3-5.5c9.5-1,12.1,0.8,13.5,10.3
		c1.7,11,4.1,21.9,6.3,32.9c2,10.1,4.3,20.1,6.2,30.2c1.1,5.8,1.6,11.8,2.8,17.6c1.4,6.9,3.2,13.8,4.7,20.7
		c0.8,3.5,1.2,7.1,2.9,10.6c0-1.8-0.1-3.7,0-5.5c0.2-1.8-1.4-4.6,2.4-4.8c0.3,0,0.6-3,0.6-4.6c0.1-9.7,0-19.4,0-29.1
		c0.5-0.1,1-0.2,1.5-0.3c0.9,0.8,1.8,1.5,2.9,2.4c0.2-0.8,0.4-1.2,0.4-1.6c0.4-10.8,0.3-21.7,1.3-32.5c0.8-8.8,3.2-17.4,4.5-26.2
		c0.5-3.4,0.4-7,0.1-10.5c-0.4-4.7,2.7-9.5,7.4-10.4c2.7-0.5,5.6-0.4,9.3-0.7c-1.3,54.8-2.5,109.2-3.8,163.9
		c-0.4-0.9-0.7-1.7-1.1-2.5c-0.4,0.1-0.9,0.2-1.3,0.3c0.7,2.8,1.3,5.6,2.2,8.3c1,3.2,3,6.3-0.8,8.9c4.4,2.8,2.9,7.3,2.1,10.7
		c-0.7,3-3.1,6.5-5.7,8.1c-3.6,2.1-8.3,2.2-12.3,3.7c-5.1,1.9-7.8,0.4-8-5.4c-4.9,1.5-6.4-0.8-7.7-4.8c-5.8-17.8-12.1-35.4-18-53.2
		c-0.6-1.8-0.1-4-0.1-5c-4.6-9.1-6.4-18.2-8.4-28.8c-0.9,2-1.7,3-1.7,4c-0.5,10-1.4,20.1-1,30.1c0.4,8.7-2.8,17.1,0.3,26.1
		c1.7,4.9-0.5,11.1-1,16.7c-0.1,0.6-0.7,1.5-0.4,1.9c3.7,6.6-1.3,9-5.8,10.5C580.8,282.3,574.3,283.2,567.7,284.6z"/>
	<path d="M549.8,443.9c-4.9,7.2-9.1,13.2-13.1,19.4c-0.8,1.2-1,3.1-0.8,4.6c1.7,15.2,3.6,30.3,5.4,45.5c0.3,2.9,0,5.8,0,9.6
		c-8.7,0-16.8,0-24.8,0c-4.2,0-5.3-2.7-5.4-6.3c-0.4-7.2-0.8-14.4-1.4-21.6c-0.6-7.1-1.5-14.2-2.2-21.2c-0.1-1.5,0.3-3,0.3-3.1
		c-0.5-3.8-0.9-6.1-1.2-8.5c-0.2-1.4-0.3-2.9-0.1-4.3c0.3-1.7,1-3.3,1.3-5c0.3-1.6,0.7-3.3,0.4-4.9c-0.3-1.8-1.3-3.4-2.1-5.2
		c0.9-1,1.8-2.1,2.8-3.1c-0.5-0.1-1.1-0.2-1.6-0.2c-0.1-1.4-0.7-3.5-0.1-4.1c3.5-3.3,2-8.2,0.5-9.9c-2.8-3.3-0.9-4.5,0.9-6.4
		c-3.6-4.6-1.8-9.7-1.8-14.5c-0.1-18,0.4-35.9,0.3-53.9c0-5-1.4-10-1.6-15c0-1.3,1.8-3.4,3.2-3.8c3.5-1.1,7.4-1,10.7-2.3
		c8-3,15.3,0.5,15.7,8.9c0.9,18.7,1.2,37.4,1.6,56.1c0.2,7.9,0,15.9,0,25.4c4.1-7.1,7.4-12.9,11.3-19.7c2.8-0.5,12-15.7,11.6-22.9
		c-1.3,2.6-2.3,4.6-3.3,6.5c-0.3-0.2-0.7-0.3-1-0.5c1.8-4,3.6-8,5.5-12c3.7-8,7.4-16.1,11.2-24.1c3.1-6.5,6.5-12.8,10-19.1
		c0.4-0.7,2.1-1.3,3.1-1.1c4.6,0.6,9.3,1,13.8,2.3c3.7,1.1,7.3,3,10.6,5.2c0.9,0.6,1,3.9,0.3,5.3c-7.3,14-14.8,27.8-22.2,41.7
		c-5.4,10-10.8,19.9-16,30c-0.6,1.1-0.5,2.8-0.2,4.1c5.7,21.6,15.6,41.3,27.7,60.1c7,10.8,13.4,22,19.7,33.3
		c4.3,7.6,3.7,8.6-4.7,11.6c-7.8,2.8-15.2-0.2-22.4-2.4c-2.2-0.7-4.6-4.9-4.5-7.4c0.1-3.2-1.2-4.4-3.3-5.9c-0.9-0.7-1.8-1.5-2.4-2.5
		c-6.8-11.3-14.1-22.3-19.9-34.1c-2.7-5.6-5.3-11.2-8.4-16.6C551.9,449.9,551.3,447.4,549.8,443.9z"/>
	<path d="M213,204.8c0,6.6,0,13.3,0,19.9c0,0.8-0.1,2.2-0.3,2.3c-4.2,0.7-2.2,4.5-3,6.7c-1.4,3.8,1.2,8.7-3.3,12.1
		c-0.9,0.7,0.1,3.3-0.4,4.9c-1.2,3.5-2.2,7.3-4.4,10.1c-4.2,5.4-6.9,11.8-12.8,16.3c-11.3,8.5-23.3,13.4-37.4,10.1
		c-6.6-1.5-12.9-4.4-19.1-7.2c-1.8-0.8-3.4-3.5-4-5.6c-3.5-12.4-8.5-24.6-9.5-37.2c-1.4-18.8-1.1-38,0.6-56.8
		c1.9-21,7-41.8,9.1-62.8c0.9-8.5,3.4-14.8,9.8-19.6c2.6-2,6-3.5,9.3-4c6.6-1,13.3-2.1,19.9-1.5c12.6,1.1,24.1,6.1,29.9,17.8
		c3.8,7.7,4.8,16.8,6.9,25.4c5.3,21.8,7.6,44,9.4,66.3c0.1,1,0,2,0,3C213.5,204.8,213.2,204.8,213,204.8z M167.8,108.2c-1,0-2,0-3,0
		c-1.6,3.5-4,6.8-4.8,10.5c-2.7,11.6-5.1,23.3-7.1,35c-1.7,9.7-3.4,19.4-4.2,29.2c-0.8,9,1,18.4-0.8,27.2c-2.5,12,2,23.3,1.6,35
		c-0.1,2.7,2.1,5.4,2.9,8.2c1.4,4.9,2.2,10,4,14.7c1.8,4.7,8.6,5.8,12.4,2.5c11-9.3,14.6-22.3,16.4-35.6c2.8-21,0.7-42-2.9-62.8
		c-2.1-12-4.6-23.9-6.8-35.9c-0.3-1.5,0.4-3.2,0.4-3.6C173,123.9,170.4,116,167.8,108.2z"/>
	<path d="M155.5,328.7c3.8-6.3,9.9-7.8,14.5-7.2c19.2,2.3,37.9,6.4,54.5,17.8c15.6,10.8,19.7,25.9,19.3,43.3
		c-0.1,3.8-0.5,7.9-2,11.3c-2.7,6,0,9.5,4.2,12.9c11.9,9.6,17.6,22.1,16.9,37.4c-0.5,13.5-3.1,26.5-10.4,38
		c-8.5,13.4-20.6,22.2-35.3,27.9c-8,3.1-15.9,6.6-24.5,7.8c-9.2,1.3-18,1.5-26.7-2.4c-1.6-0.7-3.7-0.3-6-0.5
		c0.2-3.2,0.4-6.4,0.7-9.8c1,0.5,1.9,0.9,4.1,1.8c-0.2-4-0.4-7.3-0.6-10.6c-0.3,0-0.6,0-0.8-0.1c-0.5,1.4-1,2.8-1.5,4.2
		c-0.5,0-1-0.1-1.4-0.1c-0.2-2.9-0.3-5.9-0.5-8.8c0.4-0.1,0.8-0.2,1.2-0.3c0.6,0.9,1.2,1.8,2.5,3.7c0-5.8,0.2-10.5,0-15.1
		c-0.4-11.3-1-22.6-1.6-33.9c-1-21-2-42.1-2.9-63.1c0-1.1,1-2.5,1.9-3.4c2.8-2.8,0.3-5.1-0.3-7.7c-0.5-2.1-1.2-4.2-1.2-6.2
		c0.1-3.3,0.9-6.6,1.3-9.9c0.5-4.9,1.2-9.8,1.2-14.7C162,336.1,163.3,330.4,155.5,328.7z M185.2,453.3c-0.2,0-0.4,0-0.6,0
		c1.3,14.6,2.6,29.1,3.9,43.7c0.5,6,4.2,9.3,9.4,6.4c7.9-4.5,16.2-9.5,21.8-16.3c5.2-6.2,7.1-15.2,10.5-22.9c1-2.2,3.2-4.3,3.1-6.4
		c-0.1-9.5-0.5-19.1-1.6-28.5c-0.3-2.9-3-5.6-4.7-8.3c-1.6,1.2-3.1,2.5-4.7,3.7c-0.3,0.2-0.6,0.4-0.9,0.5
		c-10.1,4.9-19.7,11.2-30.3,14.3c-7.3,2.2-6.4,6-6.2,10.8C185.1,451.3,185.2,452.3,185.2,453.3z M220.9,377c-5.6-2.6-6-8.1-7.3-13
		c-0.5-2.1-0.6-4.5-1.8-6.1c-4.1-5.8-7.8-12.3-13.2-16.6c-5.4-4.2-12.6-6.1-19.7-9.3c2.1,32.3,4,63,6.1,95.6
		c6.2-5.7,11.7-10.4,16.7-15.6c4.6-4.7,8.3-9.9,11.1-16.3c2.9-6.8,2-13.5,3.1-20.4C218,376,219.5,376.5,220.9,377z"/>
	<path d="M436.5,326.6c10.2,1.7,20.4,3.3,30.5,5.2c3,0.6,4.9,2.6,6.2,5.7c0.9,2.1,3.2,3.4,4.5,5.4c1.5,2.1,2.7,4.5,3.7,6.8
		c1.8,4,3.7,8,4.8,12.2c2,7.3,2.8,14.9,5.2,22.1c3.6,10.9,1.4,22.1,2.8,33c0.3,2.6-0.8,5.4-1.2,8.2c-1.4,10.4-2.9,20.7-4.2,31.1
		c-0.2,1.3,0.2,2.7,0.5,4c1.6,7.4-3.5,13.2-4.8,20c-2.7,14.7-11.6,25.4-23.5,34.3c-6.2,4.7-13.1,6.4-19.9,9
		c-2.3,0.9-5.5-0.1-8.3-0.7c-6.9-1.4-13.8-2.7-20.5-4.8c-2-0.6-3.3-3.5-5-5.4c-2.8-3.3-6.6-6.2-8.1-9.9c-2.7-6.5-4.3-13.4-5.6-20.3
		c-1.2-6.1-1.9-12.4-1.9-18.7c0.1-9.5-2.9-18.8-0.6-28.7c1.7-7.3-0.9-15.5-0.6-23.2c0.7-17.8,1.2-35.6,3.2-53.2
		c1.1-9.2,6.1-17,13.8-23.6c4.1-3.5,7.7-5.3,12.6-5.8c5.3-0.6,10.6-1.2,15.9-1.9C436.4,327.2,436.4,326.9,436.5,326.6z M458.4,351.2
		c-2.8-3.4-6.3-6.2-7.9-9.8c-1.9-4.4-4.5-5.5-8.5-4.7c-7.1,1.4-15.7,10.2-16.9,17.4c-1.4,8.8-3,17.7-3.6,26.6
		c-1.4,19.9-2.8,39.9-2.9,59.8c-0.1,11.6,2.4,23.2,3.9,34.8c1.4,10.9,3.1,21.6,11.2,30.2c4,4.3,5.3,4.7,9.6,0.6
		c12-11.4,17.1-25.7,18.5-41.8c0.3-3,0.4-6.1,0.9-9c0.2-0.8,1.7-1.3,2.9-2.2c-3.7-13.7,1.7-28,1.7-42.4c0.4,2.3,0.8,4.6,1.2,7
		c0.7-4.3,1.2-8.5,0.6-12.6c-0.6-3.5-2.4-6.8-3.7-10.2c0.4-0.1,0.7-0.3,1.1-0.4c0.5,0.8,0.9,1.6,1.6,2.9c-0.2-4.4-0.4-8.2-0.6-12.1
		c-0.4,0-0.7,0-1.1,0.1c-0.2,1.2-0.4,2.5-0.7,4.5c-0.9-3.1-1.5-5.3-1.9-6.5c4-3.6,0.6-6.6,0.1-9.3c0,1.6,0,3.3,0,4.9
		c-0.2-4.3-5.9-8.5-0.8-12.9c-5.7-3.1-5.9-3.8-4.4-11.2c-0.9-0.7-1.8-1.5-2.8-2.3C457.2,351.8,458.1,351.3,458.4,351.2z"/>
	<path d="M287.6,478.7c-1,0-2.1,0-1.8,0c-1.1-2.4-2.5-4.1-2.6-5.8c-0.1-1.8,1.1-3.6,1.7-5.5c-0.1,0-1.2-0.1-2.5-0.2
		c3.3-7.4,3.4-8.9-2.8-15c1-3,2.2-5.7,2.7-8.6c0.5-3.1-1.4-5.1-4.1-6.6c-0.8-0.5-1.1-2.4-1.1-3.6c-0.1-7.3-0.1-14.7,0.1-22
		c0.1-1.8,1.2-3.6,1.9-5.7c-0.2-0.8-1.1-2.4-1.1-4c0-6.4-0.8-13.1,0.7-19.1c1.2-4.8,0.1-9.7,2-14.3c2-4.9,4-9.8,6.2-14.6
		c1.5-3.2,3.4-6.1,5.1-9.2c0.5-1,1.2-2.2,1.1-3.3c-0.8-10.3,6.9-12.5,14.2-14.2c6.3-1.5,13-3,19.3-2.5c13.6,1.2,26,5.7,33,18.7
		c2.6,4.9,3.8,10.6,5.7,15.9c1.5,4.3,3.7,8.4,4.5,12.8c2.1,11.3,3.7,22.8,5.1,34.2c1.1,9.5,2.1,19,2.3,28.5c0.3,13,0.3,26-0.7,39
		c-1.2,16.4-9.7,29.1-22.9,38.7c-15.7,11.4-36.5,10.4-52.6-0.6c-10.4-7.1-12.3-18.3-15.8-28.8C285.1,481.9,286.7,480.3,287.6,478.7z
		 M336.3,341.1c-0.1,1.5-0.2,2.3-0.3,3.7c-6-7.8-7.2-7.9-12.8-0.6c-2.3,3-4.3,6.3-5.9,9.7c-3.1,6.6-7.5,13.1-8.2,20
		c-1.8,18.3-3.3,36.8-2.3,55c0.9,17.2,4.7,34.3,7.9,51.3c1.5,8.2,4.5,16,13.5,19.5c5.8,2.2,11.7,0.6,14.1-5.1
		c4.4-10.2,7.4-20.7,6.2-32.1c-0.6-5.2-0.1-10.5-0.1-15.8c0.3,0,0.6,0,1,0c0.4,2.1,0.8,4.1,1.1,6.2c0.2-0.1,0.4-0.1,0.7-0.2
		c0-5.4,0-10.8,0-17.6c-1.3,2.2-1.8,3-3.2,5.2c0-4.9,0-8.2,0-11.6c0.2,0,0.3,0,0.5,0c0.4,1.2,0.8,2.5,1.2,3.7
		c0.5-0.1,1.1-0.1,1.6-0.2c-0.4-8.2-0.7-16.4-1.4-24.6c-0.7-8.2,1.2-17.1-5.1-23c0.9-1.8,2-2.9,1.9-3.8c-1.3-6.8-2.8-13.6-4.3-20.5
		c1.2-0.3,2.4-0.5,4.6-1C342.7,353.3,342.6,345.8,336.3,341.1z"/>
	<path d="M315.3,160.6c-0.5-0.3-1.7-1-2.3-1.3c2.1-13.3,4.3-26.2,6.4-39.2c0.5,0.4,1,0.8,1.4,1.1c1.2-0.5,3.2-0.8,3.5-1.7
		c1.4-3.7,2.4-7.5,3.5-11.4c-0.8-0.1-2-0.2-4.5-0.5c1.9-1.2,3.2-1.5,3.6-2.3c9-16.4,24.3-11.2,37.9-10.6c5.4,0.3,10.6,2.9,15.9,4.7
		c1.3,0.4,2.3,1.8,3.2,2.9c6,6.9,8.4,15.4,10,24.1c1.3,6.9,2.7,13.8,3.3,20.7c0.8,9.6,0.9,19.2,1.2,28.8c0.1,2.2-0.2,4.4-0.3,6.5
		c-0.2,11.4,0.1,22.8-0.6,34.2c-0.3,5.6-2.3,11.1-3.8,16.5c-0.5,1.8-1.9,3.4-2.5,4.5c0.1,1.6,0.4,3.8,0.4,6c0,1.2-0.1,2.6-0.6,3.7
		c-0.6,1.4-1.2,3.2-2.4,3.8c-4.8,2.5-5.6,5-2.1,9.9c-5.5,1.7-5.3,7.2-7.7,10.9c-2.9,4.4-8.3,7.8-13.3,9.8c-6.2,2.5-12.6,5-19.9,3.4
		c-5.2-1.1-11,0.6-16-2.8c-3.9-2.7-7.2-5.4-8.2-10.6c-0.7-3.7-2.6-7.4-4.4-10.8c-6.6-12.1-6.6-25.5-7.4-38.7
		c-0.2-3.8-0.6-7.7-0.4-11.5c0.7-14.5,1.5-29,2.6-43.5C312.1,165.2,314,163.1,315.3,160.6z M352.1,271.2c0.9-1.4,1.5-2.2,1.9-3.1
		c3.1-7,6-14,9.1-21c1-2.4,3.9-5.6,3.2-6.7c-2.2-3.6,0.5-4.5,2-6.3c0.5-0.6,0.9-1.7,0.6-2.4c-0.8-2.4-3.2-3.7,0.6-7.1
		c3-2.6,3-9.2,3.3-14.1c0.6-8.8,0.7-17.7,0.6-26.5c0-10.8,0-21.6-0.8-32.4c-0.6-7.8-2.3-15.5-3.7-23.3c-0.8-4.1-1.8-8.2-3.3-12.1
		c-1.2-3.1-5.6-4.5-4.9-8.9c0.1-0.3-2.7-1.8-3.3-1.4c-3,1.9-7.1,3.8-8.1,6.6c-2.7,7.3-4.9,15.1-5.7,22.9
		c-1.3,11.8-1.3,23.6-1.7,35.5c-0.6,20-1.4,40.1-1.3,60.1c0,12.5,3.5,24.5,7.9,36.2C349.1,268.3,350.4,269.3,352.1,271.2z"/>
	<path d="M745.4,178.7c3.7-0.8,7.6-1.3,11.2-2.7c5.2-1.9,9.4,0.8,13.5,2.6c1.5,0.6,2,4.4,2.2,6.7c1.5,19,2.9,38,4.1,57.1
		c0.2,3.2-1.3,6.5-1.1,9.7c0.4,5.5,0.9,11,2.3,16.2c1.5,5.5-1.9,7.5-5.5,9c-6.6,2.8-13.6,2.5-20.6,1.2c-2-0.4-4.3,0-6.4,0.5
		c-9.6,2.3-19.1,2.7-28.6,0c-11.2-3.2-18.4-11.1-23.6-20.8c-8.2-15.4-9.8-32.5-10.7-49.6c-0.7-14.4-2-28.7-2.3-43.1
		c-0.3-16.1-2.2-32.7,0.9-48.3c4.1-21,12.5-29.8,35.5-33.8c11-1.9,21.6-0.2,31.8,3.6c3.9,1.4,7.5,4.5,10.2,7.7
		c5.2,5.8,8.5,12.8,9.7,20.6c0.7,4.1,2.1,8.2,2.3,12.3c0.4,7.2-5.4,12.5-12.6,12.1c-3.2-0.2-7.4,0.7-9.3-1c-1.7-1.6-0.4-6.1-1.3-9.1
		c-3.2-10.7-3.4-22.4-10.9-31.5c-1.1-1.4-3.9-2.4-5.6-2.1c-9.2,1.7-16.9,6-20.4,15.1c-1.8,4.7-2.8,9.8-3.1,14.8
		c-0.6,10.7-0.5,21.4-0.6,32c-0.1,5.7-0.2,11.5,0.3,17.2c0.7,9.1,1.9,18.2,2.6,27.3c0.6,7.1,0.5,14.3,1.1,21.5
		c0.3,3.6,1.5,7.2,2.2,10.8c0.7,3.7,1.2,7.5,1.9,11.2c0.3,1.4,0.5,2.9,1,4.3c2.7,6.5,8.4,10.1,13.5,14.4c5.3,4.4,15.6,3.6,19.5-2
		c1.1-1.6,1.1-4.2,1-6.2c-1.3-18.6-2.9-37.1-4.2-55.7c-0.4-5.3,0.1-10.6,0.1-15.9C745.7,183.1,745.6,181.5,745.4,178.7z"/>
	<path d="M419,141.6c-0.1,0-1.1,0.3-3.3,1c6.2-6.6,5.7-14.1,6.2-21.3c0.4-5.8,0.5-11.6,0.1-17.4c-0.2-2.4-2.1-4.6-3.2-6.8
		c10-5.1,18.6-2.8,27.6,3.1c15.8,10.4,30.2,21.9,39.5,38.7c3.9,7,6.3,14.5,3,22.8c-0.8,2,0.5,4.7-0.1,6.8c-1.2,4-2.9,7.9-4.6,11.7
		c-0.9,2-2.2,4.1-3.8,5.6c-3.1,2.8-3.8,6-2.6,9.8c2.1,7,4,14.1,6.2,21.1c1.7,5.5,4.5,10.9,5.1,16.5c0.8,6.7,4.7,12.3,5,19.3
		c0.3,5.7,4.2,11.4,7,16.9c2.3,4.7,1.4,10.2-3.5,11.7c-6.6,1.9-13.6,2.8-20.5,3.5c-1.2,0.1-3.5-2.7-4.1-4.5
		c-2.7-8.5-4.9-17.1-7.5-25.6c-2.4-7.9-5.2-15.7-7.5-23.7c-1.7-5.9-3.1-11.9-4.4-17.9c-0.3-1.2,0.2-2.6,0.4-3.9
		c-1.5,1-3,1.9-4.5,2.9c-2.1,1.2-4.2,2.4-6.1,3.5c-0.7,7.8-1,15.9-2.3,23.9c-1.3,7.8,0,16.2-3.9,24.9c3.5,7.4,1.8,10.8-8.6,13.1
		c-3.5,0.8-7.1,1.4-10.7,1.8c-4.8,0.5-6.2-0.8-6-6c0.4-13.3,1.2-26.5,1.5-39.8c0.3-13.4-0.1-26.9,0.4-40.4
		c0.2-6.9,1.7-13.7,2.5-20.5c0.4-3.9,0.5-7.8,0.9-11.6C417.4,154.5,418.2,148.1,419,141.6z M443.4,197.8c5.3-4.2,10.1-7.3,14.1-11.3
		c5.8-5.8,10.2-12.8,9.4-21.4c-0.6-6.5-1.8-13.2-3.9-19.3c-3.6-10.5-11.2-18-19.6-25.4C443.4,146.2,443.4,171.3,443.4,197.8z"/>
	<path d="M61.6,107.4c-6.4,4.4-9.1,10.5-10.6,17c-1.7,7.6-3.1,15.3-4.2,23c-0.7,4.9-0.7,10-0.8,15c-0.2,9.6-0.7,19.2-0.1,28.7
		c1.1,17.2,2,34.5,4.7,51.5c1.5,9,6.2,17.6,10.3,26c2.8,5.8,6.4,5.7,8.3-0.3c2.5-7.6,3.6-15.6,4.9-23.5c0.7-4,1-8,0.9-12.1
		c-0.2-5.3,3.2-6,7.1-6c5.8,0,11.1,1.9,14.8,6.5c1.5,1.8,1.8,4.7,2.8,7.4c0.1-0.1,1.1-0.6,2.1-1.1c2.6,9,1.3,17.3-2.5,19.4
		c0.5,1.6,1.3,3,1.2,4.4c-0.5,12.6-18.6,27.1-29.2,25.7c-6.7-0.9-13.6-0.9-20.1-2.7c-12.8-3.5-19.4-13.7-24.1-25.3
		c-7.1-17.4-8.4-35.9-9-54.4c-0.6-18.4-1.7-36.9-1-55.3c0.4-11.5,1.8-23.6,6.1-34c3.8-9.3,11.5-17.4,18.9-24.5
		c3-2.9,9.8-2.8,14.9-2.6c11.2,0.3,21.3,3.6,29.6,12c3.6,3.7,8.8,6.3,13.7,8.2c3.7,1.4,5.1,3.5,5.7,6.9c2.4,12.5,2.1,25,0.2,37.5
		c-0.7,5.1-3.6,8.4-7.8,8.4c-6.6,0-11.9-3.9-12.4-9.4c-0.2-2.8-0.2-5.7,0.2-8.5c1.5-10.1-5.3-22-14.5-26.3c-2.5-1.2-4.4-3.9-6.4-6.1
		C64.1,111.1,62.9,109.2,61.6,107.4z"/>
	<path d="M252.5,261.4c15.7,0,29.5,0,42.3,0c1.7,2.5,3.2,4.8,5.4,8.2c-1.2,2-3.3,5.3-5.4,8.7c0.9,0.2,2.4,0.5,4.9,1.1
		c-4.8,2.2-8.2,3.9-13,3c-4.8-0.9-10-0.1-16.2,0c3.5,4.1,5.9,6,9.4,1.9c0.1,0.7,0.3,1.3,0.4,2c-1.8,0.8-3.6,2.2-5.4,2.3
		c-11.1,0.4-22.1,0.6-33.2,0.8c-6.9,0.1-13.7-4.8-14.2-11.6c-1.2-14.9-2.3-29.8-2.2-44.7c0.3-28.7,1.4-57.4,2.5-86.1
		c0.6-15.6,1.9-31.1,3-46.6c0.1-0.9,0.3-2.4,0.8-2.6c9.5-2.8,18.8-8.3,29.5-2.4C258.3,150,255.5,205,252.5,261.4z"/>
	<path d="M544.9,235.5c2,2.1,1.8,4.5-1.6,7.1c3.6,4.9,3.6,20.9,0,22.8c2.7,8,1.9,9.8-6.2,13.7c-2.8,1.4-5.8,2.5-8.8,3.5
		c-5,1.6-8.6-1.5-8.6-7.1c0-17.6,0.1-35.2,0-52.9c-0.2-18.7-0.8-37.4-0.8-56.1c0-5.7-1.5-11.8,2.4-17c0.3-0.4,0.5-1.1,0.3-1.3
		c-4.5-5.6-0.5-11.4-0.3-17.1c0-1.1,1.6-2.1,2.7-3.3c-2.8-1.5-3.1-4.1-1.1-7.2c0.2-0.3-0.6-1.1-0.6-1.7c0.1-2.4,0.2-4.8,0.8-7.1
		c0.1-0.5,2.4-0.5,4.7-0.8c0.2-2.7,0.9-6.3,0.7-9.9c-0.2-3.3,0.6-5.5,4-6.5c4-1.2,7.8-3,11.8-3.7c3.1-0.5,5.2,1.1,5.1,4.9
		c-0.6,20.5-1.1,41.1-1.6,61.6c-0.1,3.3,0.4,6.7,0.2,10.1c-0.7,19.6-1.5,39.1-2.3,58.7C545.5,228.7,545.2,231.5,544.9,235.5z"/>
	<path d="M155.4,418.1c0-13.3,0-25.9,0-37.8C158.8,386,159.8,414.8,155.4,418.1z"/>
	<path d="M157.4,439.1c0-4.4,0-8.8,0-13.3c0.4,0,0.8,0,1.2,0c0,4.4,0,8.8,0,13.3C158.2,439.1,157.8,439.1,157.4,439.1z"/>
</g>
</svg>
